#!OML:ASF E:\Steps\Project 1\Capture day 1\Session 2\Subject.ASF
:FULLY-SPECIFIED
:DEGREES
508
root 12.4082 18.7661 7.41511 -154.58 1.98747 177.384
lowerback -32.2961 -3.89858 -8.40261
upperback -2.18447 -0.764883 -0.981523
thorax 14.4036 -0.361999 3.24104
lowerneck -4.54724 -2.05587 -1.44656
upperneck 3.02876 -2.80385 5.31426
head 1.84502 -1.26164 1.85508
rclavicle -1.09829e-014 3.57812e-014
rhumerus -30.7291 -13.3104 -83.9695
rradius 34.0661
rwrist -3.43423
rhand -8.27902 -412.959
rfingers 7.12502
rthumb 17.6404 -82.179
lclavicle -1.09829e-014 3.57812e-014
lhumerus -23.6642 -2.95943 88.0031
lradius 20.8817
lwrist -4.36782
lhand -22.2329 -13.8508
lfingers 7.12502
lthumb 4.18385 16.0878
rfemur -21.4813 7.71397 19.3757
rtibia 7.17612
rfoot -19.4363 -2.03116
rtoes -16.3021
lfemur -21.7624 -9.4949 -22.7745
ltibia 9.38941
lfoot -9.51285 -2.86689
ltoes -17.2815
509
root 12.406 18.7651 7.41794 -154.485 1.93287 177.262
lowerback -32.3577 -3.96988 -8.51768
upperback -2.21289 -0.791129 -1.00575
thorax 14.3992 -0.372221 3.26438
lowerneck -4.63825 -2.23469 -1.33124
upperneck 2.95462 -3.04504 5.28632
head 1.84294 -1.38018 1.81695
rclavicle 2.5345e-015 7.95139e-015
rhumerus -30.8319 -13.6324 -83.7489
rradius 33.5713
rwrist -3.52521
rhand -8.64608 -411.813
rfingers 7.12502
rthumb 17.2871 -81.0644
lclavicle 2.5345e-015 7.95139e-015
lhumerus -23.669 -2.17702 87.6093
lradius 20.1345
lwrist -4.93778
lhand -22.3795 -13.8171
lfingers 7.12502
lthumb 4.04226 16.1243
rfemur -21.6287 7.52774 19.2553
rtibia 7.30249
rfoot -19.5132 -2.00818
rtoes -16.695
lfemur -21.9661 -9.44431 -22.9297
ltibia 9.54505
lfoot -9.495 -3.07861
ltoes -16.5247
510
root 12.4016 18.7659 7.42072 -154.439 1.87764 177.124
lowerback -32.3632 -4.03926 -8.62161
upperback -2.22861 -0.827 -1.04498
thorax 14.3863 -0.38778 3.26193
lowerneck -4.69516 -2.47284 -1.35792
upperneck 2.62728 -3.35067 5.60192
head 1.76715 -1.52517 1.91381
rclavicle -1.635e-014 -1.27222e-014
rhumerus -30.913 -13.8245 -83.5599
rradius 33.244
rwrist -3.29823
rhand -8.30033 -412.513
rfingers 7.12502
rthumb 17.6198 -81.735
lclavicle -1.635e-014 -1.27222e-014
lhumerus -23.7303 -1.34232 87.1681
lradius 19.4586
lwrist -5.50165
lhand -22.3652 -13.8025
lfingers 7.12502
lthumb 4.05613 16.1386
rfemur -21.6546 7.48857 19.0836
rtibia 7.26227
rfoot -19.5134 -2.07947
rtoes -16.9083
lfemur -22.1057 -9.40229 -23.1118
ltibia 9.6947
lfoot -9.48746 -3.2164
ltoes -16.7904
511
root 12.4016 18.767 7.42082 -154.469 1.92051 177.15
lowerback -32.3655 -4.03142 -8.64036
upperback -2.21374 -0.815442 -1.0306
thorax 14.4036 -0.387051 3.29201
lowerneck -4.81294 -2.21047 -1.38268
upperneck 2.93432 -3.00951 5.28323
head 1.86749 -1.36142 1.82524
rclavicle 1.83876e-015 -2.3059e-014
rhumerus -30.9414 -14.1439 -83.3152
rradius 32.8132
rwrist -2.94946
rhand -8.11874 -413.383
rfingers 7.12502
rthumb 17.7946 -82.5885
lclavicle 1.83876e-015 -2.3059e-014
lhumerus -23.7509 -0.227595 86.6965
lradius 18.7699
lwrist -6.31791
lhand -22.08 -13.4844
lfingers 7.12502
lthumb 4.33156 16.4513
rfemur -21.5747 7.67176 19.0625
rtibia 7.126
rfoot -19.4382 -2.13736
rtoes -16.9164
lfemur -22.0374 -9.47355 -23.0732
ltibia 9.61463
lfoot -9.51958 -3.05915
ltoes -17.3413
512
root 12.4012 18.7676 7.42781 -154.427 1.90957 177.096
lowerback -32.3314 -4.03976 -8.70466
upperback -2.23849 -0.796422 -1.06018
thorax 14.3576 -0.376376 3.30266
lowerneck -4.90362 -2.27914 -1.43363
upperneck 2.80809 -3.09432 5.36677
head 1.84912 -1.40197 1.85792
rclavicle -6.41081e-015 -9.54166e-015
rhumerus -31.0426 -14.6648 -83.0467
rradius 32.3496
rwrist -2.57034
rhand -8.45892 -412.954
rfingers 7.12502
rthumb 17.4672 -82.1889
lclavicle -6.41081e-015 -9.54166e-015
lhumerus -23.7581 0.921579 86.1736
lradius 18.0369
lwrist -7.30144
lhand -21.7771 -13.3447
lfingers 7.12502
lthumb 4.62396 16.5848
rfemur -21.6581 7.66559 18.9827
rtibia 7.13801
rfoot -19.4358 -2.14735
rtoes -16.9726
lfemur -22.1439 -9.50846 -23.1212
ltibia 9.67258
lfoot -9.58327 -3.08158
ltoes -17.5155
513
root 12.3963 18.7662 7.43744 -154.378 1.73726 177.105
lowerback -32.2428 -4.04474 -8.62753
upperback -2.26093 -0.831855 -1.10492
thorax 14.2969 -0.382076 3.20025
lowerneck -5.01803 -2.46622 -1.41341
upperneck 2.48994 -3.33257 5.68381
head 1.78326 -1.51068 1.94868
rclavicle 7.25564e-015 8.74653e-015
rhumerus -31.1136 -15.1521 -82.8599
rradius 31.7996
rwrist -2.34341
rhand -8.88061 -412.497
rfingers 7.12502
rthumb 17.0614 -81.7682
lclavicle 7.25564e-015 8.74653e-015
lhumerus -23.8045 1.62644 85.6767
lradius 17.3411
lwrist -7.90385
lhand -21.8012 -13.5017
lfingers 7.12502
lthumb 4.60072 16.4283
rfemur -21.7085 7.35926 19.0664
rtibia 7.12652
rfoot -19.4413 -2.00533
rtoes -16.7397
lfemur -22.3532 -9.46683 -23.1136
ltibia 9.90877
lfoot -9.59011 -3.3373
ltoes -17.0431
514
root 12.3937 18.7665 7.43555 -154.44 1.84941 177.067
lowerback -32.2526 -4.01046 -8.68698
upperback -2.21245 -0.763004 -1.14438
thorax 14.3491 -0.360507 3.21639
lowerneck -5.03921 -2.34483 -1.42225
upperneck 2.53988 -3.17161 5.62872
head 1.79576 -1.4317 1.93759
rclavicle -1.02374e-014 4.77083e-015
rhumerus -31.1756 -15.5949 -82.6383
rradius 31.3115
rwrist -2.1365
rhand -8.94248 -411.992
rfingers 7.12502
rthumb 17.0018 -81.2679
lclavicle -1.02374e-014 4.77083e-015
lhumerus -23.8576 2.67453 85.1045
lradius 16.6492
lwrist -8.81047
lhand -21.5919 -13.3036
lfingers 7.12502
lthumb 4.80286 16.622
rfemur -21.6705 7.32174 18.9933
rtibia 7.14643
rfoot -19.4992 -1.92447
rtoes -16.7883
lfemur -22.2531 -9.50783 -23.1802
ltibia 9.84925
lfoot -9.55991 -3.20796
ltoes -16.674
515
root 12.3869 18.7669 7.43463 -154.535 1.85718 177.029
lowerback -32.1907 -3.98177 -8.68109
upperback -2.18433 -0.738412 -1.16621
thorax 14.3523 -0.353301 3.20015
lowerneck -5.03643 -2.35451 -1.40224
upperneck 2.57631 -3.18703 5.58112
head 1.80597 -1.44034 1.91801
rclavicle -6.60959e-015 3.49861e-014
rhumerus -31.3239 -16.243 -82.2401
rradius 30.8428
rwrist -1.66107
rhand -8.80383 -411.558
rfingers 7.12502
rthumb 17.1353 -80.8223
lclavicle -6.60959e-015 3.49861e-014
lhumerus -23.966 4.13993 84.4388
lradius 16.0948
lwrist -10.0856
lhand -21.1012 -12.8263
lfingers 7.12502
lthumb 5.27668 17.088
rfemur -21.5869 7.21988 18.9588
rtibia 7.22784
rfoot -19.5886 -1.88995
rtoes -16.9929
lfemur -22.0758 -9.63207 -23.2696
ltibia 9.75127
lfoot -9.61551 -3.10861
ltoes -17.1802
516
root 12.3835 18.7668 7.43619 -154.502 1.823 176.97
lowerback -32.2257 -4.01205 -8.72832
upperback -2.19025 -0.750406 -1.1718
thorax 14.3616 -0.35898 3.21371
lowerneck -4.9783 -2.35052 -1.4619
upperneck 2.50061 -3.17581 5.66176
head 1.77404 -1.43491 1.9556
rclavicle 4.91992e-015 4.13472e-014
rhumerus -31.4569 -16.8896 -81.8086
rradius 30.2199
rwrist -1.01053
rhand -8.73236 -411.17
rfingers 7.12502
rthumb 17.2041 -80.4282
lclavicle 4.91992e-015 4.13472e-014
lhumerus -24.1612 5.3317 83.8213
lradius 15.6588
lwrist -11.1412
lhand -21.0614 -12.5444
lfingers 7.12502
lthumb 5.31505 17.369
rfemur -21.6628 7.24874 18.8654
rtibia 7.28464
rfoot -19.5632 -1.99185
rtoes -17.0849
lfemur -22.1702 -9.5997 -23.3588
ltibia 9.86672
lfoot -9.77445 -3.21932
ltoes -17.8372
517
root 12.3816 18.7653 7.43539 -154.451 1.80856 176.942
lowerback -32.362 -4.03681 -8.76887
upperback -2.14371 -0.750615 -1.16797
thorax 14.4738 -0.367119 3.23659
lowerneck -4.99552 -2.34354 -1.50298
upperneck 2.43121 -3.16145 5.74177
head 1.7571 -1.42621 1.98941
rclavicle -9.0944e-015 -1.59028e-014
rhumerus -31.5054 -17.1049 -81.5647
rradius 29.6753
rwrist -0.75329
rhand -8.86725 -411.18
rfingers 7.12502
rthumb 17.0742 -80.4493
lclavicle -9.0944e-015 -1.59028e-014
lhumerus -24.2399 6.35179 83.2582
lradius 15.0508
lwrist -12.1195
lhand -21.3266 -12.2423
lfingers 7.12502
lthumb 5.05895 17.6773
rfemur -21.7418 7.21712 18.8181
rtibia 7.31414
rfoot -19.5004 -1.97142
rtoes -17.1093
lfemur -22.2723 -9.53536 -23.4087
ltibia 9.98134
lfoot -9.86639 -3.2798
ltoes -17.7233
518
root 12.3794 18.7649 7.43673 -154.433 1.8163 176.948
lowerback -32.4407 -4.03362 -8.78227
upperback -2.08363 -0.739098 -1.15801
thorax 14.5762 -0.372106 3.25727
lowerneck -5.13176 -2.36312 -1.39217
upperneck 2.45122 -3.193 5.66938
head 1.78475 -1.43983 1.94405
rclavicle -9.34288e-015 1.90833e-014
rhumerus -31.5729 -17.2307 -81.3699
rradius 29.309
rwrist -0.791602
rhand -9.06183 -411.317
rfingers 7.12502
rthumb 16.8869 -80.6028
lclavicle -9.34288e-015 1.90833e-014
lhumerus -24.2541 7.29316 82.7172
lradius 14.4241
lwrist -12.9079
lhand -21.5309 -12.0844
lfingers 7.12502
lthumb 4.8617 17.8399
rfemur -21.7976 7.14297 18.813
rtibia 7.33935
rfoot -19.3847 -1.78572
rtoes -16.3846
lfemur -22.3166 -9.56998 -23.3916
ltibia 10.0134
lfoot -9.77774 -3.12124
ltoes -17.5155
519
root 12.3676 18.7744 7.41257 -155.131 2.12374 177.238
lowerback -32.1383 -3.6938 -8.42271
upperback -1.85498 -0.529246 -1.16366
thorax 14.6917 -0.302443 3.14845
lowerneck -5.17376 -2.35492 -1.35891
upperneck 2.48063 -3.1847 5.61644
head 1.79934 -1.43594 1.92086
rclavicle -7.40473e-015 1.03368e-014
rhumerus -31.7355 -17.8036 -80.977
rradius 28.8472
rwrist -0.332998
rhand -8.96374 -411.249
rfingers 7.12502
rthumb 16.9813 -80.5264
lclavicle -7.40473e-015 1.03368e-014
lhumerus -24.4396 8.35787 82.076
lradius 13.8952
lwrist -13.7611
lhand -21.8191 -12.6484
lfingers 7.12502
lthumb 4.58346 17.282
rfemur -20.9274 7.11858 19.1644
rtibia 7.24417
rfoot -19.3194 -1.16077
rtoes -15.2565
lfemur -21.1556 -9.70464 -23.2647
ltibia 9.48577
lfoot -9.70247 -2.37049
ltoes -18.2031
520
root 12.3655 18.7782 7.40714 -155.307 2.32332 177.276
lowerback -32.0733 -3.59164 -8.40117
upperback -1.81584 -0.422966 -1.17204
thorax 14.6981 -0.261904 3.17218
lowerneck -5.13258 -2.31473 -1.43491
upperneck 2.50529 -3.12872 5.61984
head 1.79966 -1.40984 1.93775
rclavicle 4.57205e-015 5.56597e-015
rhumerus -31.9077 -18.5662 -80.4992
rradius 28.2149
rwrist 0.553716
rhand -8.72313 -411.418
rfingers 7.12502
rthumb 17.2129 -80.6759
lclavicle 4.57205e-015 5.56597e-015
lhumerus -24.7321 9.32882 81.4265
lradius 13.4131
lwrist -14.6261
lhand -22.0497 -12.9131
lfingers 7.12502
lthumb 4.36082 17.022
rfemur -20.8224 7.37669 19.1366
rtibia 7.40774
rfoot -19.3434 -1.19268
rtoes -14.9978
lfemur -20.8482 -9.63458 -23.2895
ltibia 9.32367
lfoot -9.7113 -2.16684
ltoes -19.0439
521
root 12.3684 18.7775 7.41433 -155.241 2.36527 177.219
lowerback -32.0476 -3.62556 -8.53682
upperback -1.86097 -0.413425 -1.16914
thorax 14.6326 -0.258289 3.25214
lowerneck -5.19575 -2.29772 -1.40205
upperneck 2.57289 -3.11003 5.52407
head 1.82902 -1.40155 1.90096
rclavicle -1.78906e-015 2.70347e-014
rhumerus -32.1304 -19.2576 -80.0541
rradius 27.6899
rwrist 1.27207
rhand -8.71402 -411.846
rfingers 7.12502
rthumb 17.2217 -81.1031
lclavicle -1.78906e-015 2.70347e-014
lhumerus -25.0485 10.2707 80.7846
lradius 13.0063
lwrist -15.5319
lhand -21.9629 -12.66
lfingers 7.12502
lthumb 4.44463 17.2734
rfemur -21.0184 7.54892 19.0235
rtibia 7.57975
rfoot -19.4093 -1.38142
rtoes -15.1336
lfemur -20.9602 -9.57259 -23.3219
ltibia 9.33274
lfoot -9.66834 -2.26366
ltoes -18.5188
